/vscmnt/brussel_pixiu_data/_data_brussel/112/vsc11236/PredSimResults/SUBJ09mtu3D/worker3.mot
version=1
nRows=4
nColumns=50
inDegrees=yes
endheader
                time	         pelvis_tilt	         pelvis_list	     pelvis_rotation	           pelvis_tx	           pelvis_ty	           pelvis_tz	       hip_flexion_r	     hip_adduction_r	      hip_rotation_r	        knee_angle_r	       ankle_angle_r	         mtp_angle_r	       hip_flexion_l	     hip_adduction_l	      hip_rotation_l	        knee_angle_l	       ankle_angle_l	         mtp_angle_l	    lumbar_extension	      lumbar_bending	     lumbar_rotation	 ercspn_r/activation	 intobl_r/activation	 extobl_r/activation	    abd_r/activation	    add_r/activation	hamstrings_r/activation	bifemsh_r/activation	glut_max_r/activation	iliopsoas_r/activation	rect_fem_r/activation	  vasti_r/activation	gastroc_r/activation	 soleus_r/activation	tib_ant_r/activation	 ercspn_l/activation	 intobl_l/activation	 extobl_l/activation	    abd_l/activation	    add_l/activation	hamstrings_l/activation	bifemsh_l/activation	glut_max_l/activation	iliopsoas_l/activation	rect_fem_l/activation	  vasti_l/activation	gastroc_l/activation	 soleus_l/activation	tib_ant_l/activation	
          0.00000000	         -4.29085596	         -2.86661081	          7.74042496	          0.00000000	          0.99197568	         -0.00935703	         24.37195005	          1.08976680	         -0.44493595	          1.45315126	          4.80030142	          0.25991373	        -12.66715541	         -2.90883954	          5.20194463	        -10.46654041	          7.78911158	         31.70371582	         -8.76100440	          2.04283871	         -3.87864870	          0.06868666	          0.12478318	          0.01242671	          0.03075600	          0.09624463	          0.05035297	          0.22457233	          0.05766024	          0.08287686	          0.01000002	          0.01436802	          0.01576403	          0.00999999	          0.28062089	          0.05662246	          0.01000000	          0.01000000	          0.04758161	          0.01520545	          0.01662052	          0.09626697	          0.02967682	          0.33060199	          0.01437051	          0.01147981	          0.31388750	          0.23404798	          0.01437050	
          0.01192627	         -4.33311376	         -2.86282012	          7.62982702	          0.01839343	          0.99017551	         -0.00865532	         23.99699286	          1.35009907	         -0.14081627	          0.45788373	          4.03495507	          0.21231132	        -12.93052254	         -2.94634503	          4.66861262	        -11.83271725	          6.87174667	         33.58785610	         -8.37042722	          2.28275996	         -4.13187110	          0.05729756	          0.10409258	          0.01036621	          0.07814410	          0.08028607	          0.05212993	          0.18733545	          0.06449722	          0.06913484	          0.01000000	          0.01198566	          0.01437053	          0.01198772	          0.32645728	          0.06349420	          0.00999999	          0.01000000	          0.03969198	          0.01536270	          0.01739971	          0.08030472	          0.02475603	          0.31410991	          0.01198771	          0.01000035	          0.28797822	          0.21406259	          0.01198770	
          0.02385254	         -4.35981686	         -2.87435660	          7.47318449	          0.03686767	          0.98877924	         -0.00789128	         23.46510449	          1.61774023	          0.11770650	         -0.30626492	          3.23056429	          0.20226697	        -12.96100939	         -2.98112430	          4.10637531	        -13.62811014	          5.78419433	         35.47470558	         -7.99003236	          2.54706123	         -4.35194403	          0.04779692	          0.08683274	          0.01000000	          0.11684363	          0.06697365	          0.05515143	          0.15627292	          0.08188095	          0.05767143	          0.01000000	          0.01000005	          0.01198771	          0.01000001	          0.39350656	          0.07347802	          0.00999999	          0.01000000	          0.03311056	          0.01281541	          0.02429681	          0.06698920	          0.02065118	          0.30413547	          0.01000002	          0.01000001	          0.24779564	          0.18156541	          0.00999999	
          0.03577881	         -4.37403443	         -2.89698632	          7.27414605	          0.05513392	          0.98800373	         -0.00706291	         22.83366031	          1.90340745	          0.34250982	         -0.87177870	          2.34865685	          0.16668938	        -12.66802219	         -3.00836517	          3.51894420	        -15.96587855	          4.51434844	         37.21301988	         -7.65138422	          2.83093753	         -4.53716687	          0.04664934	          0.07243479	          0.00999999	          0.15321679	          0.07563661	          0.05318230	          0.13036093	          0.09781739	          0.04810879	          0.01000000	          0.01000020	          0.01000001	          0.00999999	          0.43323697	          0.09146639	          0.00999999	          0.01000000	          0.02762042	          0.02720088	          0.02065116	          0.05588157	          0.01722695	          0.28136902	          0.01000000	          0.01000011	          0.20670804	          0.15145961	          0.00999999	
